<svg id="SVGDoc" width="15" height="14" xmlns="http://www.w3.org/2000/svg" version="1.1" xmlns:xlink="http://www.w3.org/1999/xlink" xmlns:avocode="https://avocode.com/" viewBox="0 0 15 14"><defs><path d="M850.01326,512.50098c-0.91973,-0.38179 -1.92416,-0.57251 -3.01331,-0.57251c-0.81265,0 -1.58954,0.11279 -2.33049,0.33811c-0.74114,0.22552 -1.37959,0.53014 -1.91518,0.914c-0.53578,0.38407 -0.96218,0.84048 -1.27902,1.36952c-0.31703,0.5289 -0.47535,1.08371 -0.47535,1.66401c0,0.6696 0.20192,1.29689 0.60595,1.88174c0.40384,0.58485 0.95644,1.07585 1.65742,1.47315c-0.04933,0.17867 -0.10727,0.34824 -0.17419,0.50906c-0.06692,0.16061 -0.12716,0.29242 -0.18089,0.39502c-0.05354,0.1026 -0.12601,0.21642 -0.2176,0.34148c-0.09159,0.12499 -0.16062,0.21312 -0.20766,0.26459c-0.04685,0.05113 -0.12391,0.13608 -0.23098,0.25439c-0.10708,0.11824 -0.1763,0.1952 -0.20766,0.23103c-0.0088,0.00889 -0.02658,0.02901 -0.05335,0.06029c-0.02677,0.03114 -0.04245,0.05023 -0.04685,0.05691c-0.00459,0.00675 -0.01797,0.02673 -0.04035,0.06029c-0.02237,0.03342 -0.03231,0.05464 -0.03002,0.0636c0.0021,0.00889 -0.00229,0.03121 -0.01358,0.06697c-0.01109,0.03562 -0.00994,0.06243 0.00344,0.08034v0.00675c0.01778,0.08034 0.05698,0.14504 0.11721,0.1941c0.06023,0.04913 0.1283,0.06918 0.20421,0.06029c0.29026,-0.03583 0.54476,-0.08482 0.76332,-0.14731c1.16983,-0.29918 2.19645,-0.83938 3.08042,-1.62053c0.33481,0.03583 0.65853,0.05354 0.97116,0.05354c1.08914,0 2.09358,-0.19086 3.01331,-0.57251c0.91954,-0.38165 1.64729,-0.90166 2.18306,-1.56024c0.53558,-0.65844 0.80347,-1.37613 0.80347,-2.15294c0,-0.77674 -0.26789,-1.4943 -0.80347,-2.15287c-0.53578,-0.65844 -1.26353,-1.17859 -2.18306,-1.56024z" id="Path-0"/></defs><desc>Generated with Avocode.</desc><g transform="matrix(1,0,0,1,-839,-510)"><g><title>fa-comment</title><use xlink:href="#Path-0" fill="#ffffff" fill-opacity="1"/></g></g></svg>